<?xml version="1.0" encoding="iso-8859-1"?>
<!-- Generator: Adobe Illustrator 19.0.0, SVG Export Plug-In . SVG Version: 6.00 Build 0)  -->
<svg version="1.1" id="Layer_1" xmlns="http://www.w3.org/2000/svg" xmlns:xlink="http://www.w3.org/1999/xlink" x="0px" y="0px"
	 viewBox="0 0 512 512" style="enable-background:new 0 0 512 512;" xml:space="preserve">
<g transform="translate(1 1)">
	<g>
		<g>
			<path d="M476.867,186.506h-36.101l7.087-19.627c10.24-28.16-4.267-58.88-32.427-69.12L150.893,1.333
				c-9.387-3.413-20.48-2.56-29.867,1.707s-17.067,11.947-20.48,22.187l-27.689,75.947h-5.591c-18.773,0-34.133,15.36-34.133,34.133
				v51.2C14.36,186.506-1,201.866-1,220.64v256c0,18.773,15.36,34.133,34.133,34.133h443.733c18.773,0,34.133-15.36,34.133-34.133
				v-256C511,201.866,495.64,186.506,476.867,186.506z M115.907,30.346c2.56-5.973,6.827-10.24,11.947-12.8
				s11.093-2.56,17.067-0.853l264.533,96.427c19.627,7.68,29.013,29.013,22.187,47.787l-9.387,25.6H302.036l-8.514-11.825
				l-12.58-17.685l48.298,17.563c0.853,0.853,1.707,0.853,2.56,0.853c3.413,0,6.827-2.56,8.533-5.973
				c1.707-4.267-0.853-9.387-5.12-11.093l-71.913-26.15l-20.247-28.463c-1.707-1.707-4.267-3.413-6.827-3.413H203.8
				c-0.853,0-0.853,0-1.707,0H90.307L115.907,30.346z M50.2,135.306c0-9.387,7.68-17.067,17.067-17.067H78.36h121.173h1.707h29.867
				l49.493,68.267H50.2V135.306z M493.933,476.64c0,9.387-7.68,17.067-17.067,17.067H33.133c-9.387,0-17.067-7.68-17.067-17.067
				v-256c0-9.387,7.68-17.067,17.067-17.067h8.533h256h130.56h48.64c9.387,0,17.067,7.68,17.067,17.067V476.64z"/>
			<path d="M400.92,154.933c3.413,0,6.827-1.707,7.68-5.973c1.707-4.267-0.853-9.387-5.12-11.093L146.627,44.853
				c-4.267-1.707-9.387,0.853-11.093,5.12s0.853,9.387,5.12,11.093L398.36,154.08C399.213,154.933,400.067,154.933,400.92,154.933z"
				/>
			<path d="M161.133,237.706h-102.4c-5.12,0-8.533,3.413-8.533,8.533s3.413,8.533,8.533,8.533h102.4c5.12,0,8.533-3.413,8.533-8.533
				S166.253,237.706,161.133,237.706z"/>
			<path d="M161.133,271.84h-102.4c-5.12,0-8.533,3.413-8.533,8.533s3.413,8.533,8.533,8.533h102.4c5.12,0,8.533-3.413,8.533-8.533
				S166.253,271.84,161.133,271.84z"/>
		</g>
	</g>
</g>
<g>
</g>
<g>
</g>
<g>
</g>
<g>
</g>
<g>
</g>
<g>
</g>
<g>
</g>
<g>
</g>
<g>
</g>
<g>
</g>
<g>
</g>
<g>
</g>
<g>
</g>
<g>
</g>
<g>
</g>
</svg>
